<svg width="202" height="45" viewBox="0 0 202 45" fill="none" xmlns="http://www.w3.org/2000/svg">
<g clip-path="url(#clip0_2943_1795)">
<path d="M6.376 7.34H18.616C20.775 7.34 22.7215 7.7225 24.4555 8.4875C26.1895 9.2355 27.5665 10.383 28.5865 11.93C29.6235 13.46 30.142 15.381 30.142 17.693C30.142 19.988 29.6235 21.943 28.5865 23.558C27.5665 25.156 26.1895 26.38 24.4555 27.23C22.7215 28.063 20.775 28.4795 18.616 28.4795H14.0005V41H6.376V7.34ZM14.0005 22.4615H16.4995C17.5365 22.4615 18.463 22.3085 19.279 22.0025C20.112 21.6965 20.775 21.212 21.268 20.549C21.761 19.869 22.0075 18.9765 22.0075 17.8715C22.0075 16.7495 21.761 15.8655 21.268 15.2195C20.775 14.5565 20.112 14.0805 19.279 13.7915C18.463 13.5025 17.5365 13.358 16.4995 13.358H14.0005V22.4615ZM42.2919 41H34.5144V5.912H42.2919V41ZM63.5334 41V37.6085C63.3804 37.9485 62.9894 38.4415 62.3604 39.0875C61.7485 39.7335 60.9325 40.32 59.9125 40.847C58.8925 41.357 57.7025 41.612 56.3424 41.612C54.3024 41.612 52.5174 41.119 50.9874 40.133C49.4574 39.13 48.2674 37.7955 47.4174 36.1295C46.5674 34.4465 46.1424 32.585 46.1424 30.545C46.1424 28.505 46.5674 26.652 47.4174 24.986C48.2674 23.303 49.4574 21.96 50.9874 20.957C52.5174 19.954 54.3024 19.4525 56.3424 19.4525C57.6514 19.4525 58.7989 19.665 59.7849 20.09C60.7709 20.498 61.57 20.991 62.182 21.569C62.794 22.13 63.219 22.6485 63.457 23.1245V20.0645H71.158V41H63.5334ZM53.7414 30.545C53.7414 31.497 53.9624 32.3555 54.4044 33.1205C54.8464 33.8685 55.4329 34.455 56.1639 34.88C56.9119 35.305 57.7364 35.5175 58.6375 35.5175C59.5725 35.5175 60.397 35.305 61.111 34.88C61.825 34.455 62.386 33.8685 62.794 33.1205C63.2189 32.3555 63.4314 31.497 63.4314 30.545C63.4314 29.593 63.2189 28.743 62.794 27.995C62.386 27.23 61.825 26.635 61.111 26.21C60.397 25.768 59.5725 25.547 58.6375 25.547C57.7364 25.547 56.9119 25.768 56.1639 26.21C55.4329 26.635 54.8464 27.23 54.4044 27.995C53.9624 28.743 53.7414 29.593 53.7414 30.545ZM74.2921 20.0645H77.8621V11.471H85.5376V20.0645H90.2296V26.4395H85.5376V32.279C85.5376 33.146 85.6651 33.8515 85.9201 34.3955C86.1751 34.9225 86.6426 35.186 87.3226 35.186C87.7816 35.186 88.1726 35.084 88.4956 34.88C88.8186 34.676 89.0141 34.54 89.0821 34.472L91.7341 39.98C91.6151 40.082 91.2411 40.269 90.6121 40.541C90.0001 40.813 89.2181 41.0595 88.2661 41.2805C87.3141 41.5015 86.2516 41.612 85.0786 41.612C82.9876 41.612 81.2621 41.0255 79.9021 39.8525C78.5421 38.6625 77.8621 36.835 77.8621 34.37V26.4395H74.2921V20.0645ZM94.7829 7.34H106.334C108.255 7.34 110.032 7.6035 111.664 8.1305C113.313 8.6575 114.639 9.5245 115.642 10.7315C116.662 11.9215 117.172 13.5365 117.172 15.5765C117.172 16.9195 116.917 18.118 116.407 19.172C115.914 20.226 115.251 21.093 114.418 21.773C113.602 22.436 112.709 22.878 111.74 23.099C112.59 23.201 113.415 23.4475 114.214 23.8385C115.03 24.2125 115.761 24.7395 116.407 25.4195C117.07 26.0825 117.588 26.9155 117.962 27.9185C118.353 28.9045 118.549 30.0775 118.549 31.4375C118.549 33.3245 118.124 34.9905 117.274 36.4355C116.441 37.8635 115.217 38.9855 113.602 39.8015C112.004 40.6005 110.04 41 107.711 41H94.7829V7.34ZM102.407 34.9055H105.875C106.963 34.9055 107.847 34.744 108.527 34.421C109.224 34.081 109.734 33.605 110.057 32.993C110.38 32.364 110.542 31.616 110.542 30.749C110.542 29.389 110.117 28.3945 109.267 27.7655C108.434 27.1195 107.261 26.7965 105.748 26.7965H102.407V34.9055ZM102.407 20.8295H105.493C106.394 20.8295 107.142 20.668 107.737 20.345C108.349 20.022 108.808 19.5715 109.114 18.9935C109.437 18.3985 109.598 17.7185 109.598 16.9535C109.598 15.5765 109.207 14.65 108.425 14.174C107.643 13.681 106.572 13.4345 105.212 13.4345H102.407V20.8295ZM133.752 41.612C131.457 41.612 129.417 41.1445 127.632 40.2095C125.864 39.2575 124.47 37.957 123.45 36.308C122.447 34.642 121.945 32.738 121.945 30.596C121.945 28.454 122.447 26.55 123.45 24.884C124.47 23.201 125.864 21.875 127.632 20.906C129.417 19.937 131.457 19.4525 133.752 19.4525C136.047 19.4525 138.07 19.937 139.821 20.906C141.572 21.875 142.94 23.201 143.926 24.884C144.912 26.55 145.405 28.454 145.405 30.596C145.405 32.738 144.912 34.642 143.926 36.308C142.94 37.957 141.572 39.2575 139.821 40.2095C138.07 41.1445 136.047 41.612 133.752 41.612ZM133.752 35.237C134.636 35.237 135.401 35.0415 136.047 34.6505C136.693 34.2595 137.194 33.707 137.551 32.993C137.908 32.279 138.087 31.4715 138.087 30.5705C138.087 29.6525 137.908 28.8365 137.551 28.1225C137.194 27.4085 136.693 26.8475 136.047 26.4395C135.401 26.0315 134.636 25.8275 133.752 25.8275C132.868 25.8275 132.094 26.0315 131.431 26.4395C130.785 26.8475 130.275 27.4085 129.901 28.1225C129.544 28.8365 129.366 29.6525 129.366 30.5705C129.366 31.4715 129.544 32.279 129.901 32.993C130.275 33.707 130.785 34.2595 131.431 34.6505C132.094 35.0415 132.868 35.237 133.752 35.237ZM160.098 41.612C157.803 41.612 155.763 41.1445 153.978 40.2095C152.21 39.2575 150.816 37.957 149.796 36.308C148.793 34.642 148.292 32.738 148.292 30.596C148.292 28.454 148.793 26.55 149.796 24.884C150.816 23.201 152.21 21.875 153.978 20.906C155.763 19.937 157.803 19.4525 160.098 19.4525C162.393 19.4525 164.416 19.937 166.167 20.906C167.918 21.875 169.287 23.201 170.273 24.884C171.259 26.55 171.752 28.454 171.752 30.596C171.752 32.738 171.259 34.642 170.273 36.308C169.287 37.957 167.918 39.2575 166.167 40.2095C164.416 41.1445 162.393 41.612 160.098 41.612ZM160.098 35.237C160.982 35.237 161.747 35.0415 162.393 34.6505C163.039 34.2595 163.541 33.707 163.898 32.993C164.255 32.279 164.433 31.4715 164.433 30.5705C164.433 29.6525 164.255 28.8365 163.898 28.1225C163.541 27.4085 163.039 26.8475 162.393 26.4395C161.747 26.0315 160.982 25.8275 160.098 25.8275C159.214 25.8275 158.441 26.0315 157.778 26.4395C157.132 26.8475 156.622 27.4085 156.248 28.1225C155.891 28.8365 155.712 29.6525 155.712 30.5705C155.712 31.4715 155.891 32.279 156.248 32.993C156.622 33.707 157.132 34.2595 157.778 34.6505C158.441 35.0415 159.214 35.237 160.098 35.237ZM190.066 20.0645H198.838L188.97 30.0605L199.858 41H190.882L182.799 32.585V41H175.047V5.912H182.799V27.3575L190.066 20.0645Z" fill="white"/>
</g>
<defs>
<clipPath id="clip0_2943_1795">
<rect width="202" height="45" fill="white"/>
</clipPath>
</defs>
</svg>
