<svg width="11" height="11" viewBox="0 0 11 11" fill="none" xmlns="http://www.w3.org/2000/svg">
<g id="Group">
<g id="Group_2">
<g id="Group_3">
<g id="Clip path group">
<mask id="mask0_6_214" style="mask-type:luminance" maskUnits="userSpaceOnUse" x="0" y="0" width="12" height="11">
<g id="a">
<path id="Vector" d="M11.0011 0H0V10.9894H11.0011V0Z" fill="white"/>
</g>
</mask>
<g mask="url(#mask0_6_214)">
<g id="Group_4">
<g id="Group_5">
<g id="Group_6">
<g id="Group_7">
<path id="Vector_2" fill-rule="evenodd" clip-rule="evenodd" d="M7.5316 0.800484C8.15089 1.05573 8.69656 1.42345 9.15562 1.88202C9.61467 2.34058 9.98278 2.88568 10.2383 3.50431C10.4895 4.11862 10.6281 4.79782 10.6281 5.52029C10.6281 6.24275 10.4895 6.92195 10.2383 7.53626C9.98278 8.1549 9.61467 8.69999 9.15562 9.15856C8.69656 9.61713 8.15089 9.98485 7.5316 10.2401C6.91664 10.491 6.23672 10.6294 5.51349 10.6294C4.79026 10.6294 4.11034 10.491 3.49538 10.2401C2.87609 9.98485 2.33042 9.61713 1.87137 9.15856C1.41231 8.69999 1.0442 8.1549 0.78869 7.53626C0.537508 6.92195 0.398926 6.24275 0.398926 5.52029C0.398926 4.79782 0.537508 4.11862 0.78869 3.50431C1.0442 2.88568 1.41231 2.34058 1.87137 1.88202C2.33042 1.42345 2.87609 1.05573 3.49538 0.800484C4.11034 0.549569 4.79026 0.411133 5.51349 0.411133C6.23672 0.411133 6.91664 0.549569 7.5316 0.800484ZM7.41034 9.93294C7.982 9.69933 8.49735 9.35324 8.92609 8.92928C9.3505 8.50099 9.69696 7.98618 9.93082 7.41513C10.169 6.83543 10.2989 6.19949 10.2989 5.52029C10.2989 4.84109 10.169 4.20515 9.93082 3.62544C9.69696 3.0544 9.3505 2.53959 8.92609 2.1113C8.49735 1.68734 7.982 1.34125 7.41034 1.10764C6.83003 0.869702 6.19341 0.739918 5.51349 0.739918C4.83357 0.739918 4.19696 0.869702 3.61664 1.10764C3.04499 1.34125 2.52963 1.68734 2.10089 2.1113C1.67648 2.53959 1.33003 3.0544 1.09617 3.62544C0.857981 4.20515 0.72806 4.84109 0.72806 5.52029C0.72806 6.19949 0.857981 6.83543 1.09617 7.41513C1.33003 7.98618 1.67648 8.50099 2.10089 8.92928C2.52963 9.35324 3.04499 9.69933 3.61664 9.93294C4.19696 10.1709 4.83357 10.3007 5.51349 10.3007C6.19341 10.3007 6.83003 10.1709 7.41034 9.93294Z" fill="white"/>
</g>
</g>
<g id="Group_8">
<g id="Group_9">
<path id="Vector_3" fill-rule="evenodd" clip-rule="evenodd" d="M4.5258 5.59889L2.52502 7.15197C2.45572 7.04815 2.41675 6.93134 2.41675 6.81453V4.21886L4.5258 5.59889ZM4.72069 5.72435L5.43092 6.18725C5.43092 6.19157 5.43525 6.19157 5.43525 6.19157C5.45257 6.20022 5.4699 6.20888 5.49155 6.20888H5.5262C5.54785 6.20888 5.56517 6.20022 5.5825 6.19157C5.5825 6.19157 5.58683 6.19157 5.58683 6.18725L6.27541 5.73733L8.3195 7.32502C8.19824 7.42884 8.04667 7.49374 7.89943 7.49374H3.09234C2.94076 7.49374 2.78919 7.42452 2.66793 7.32069L4.72069 5.72435ZM6.47029 5.61187L8.57935 4.23184V6.81453C8.57935 6.93567 8.53604 7.05247 8.46675 7.16062L6.47029 5.61187ZM5.50887 5.97527L2.43407 3.96794C2.50336 3.67809 2.79785 3.42285 3.09234 3.42285H7.89943C8.19824 3.42285 8.49706 3.68675 8.56635 3.98092L5.50887 5.97527Z" fill="white"/>
</g>
</g>
</g>
</g>
</g>
</g>
</g>
</g>
</g>
</svg>
