<svg
  width="186"
  height="43"
  viewBox="0 0 186 43"
  fill="none"
  xmlns="http://www.w3.org/2000/svg"
>
  <path
    fillRule="evenodd"
    clipRule="evenodd"
    d="M25.1552 12.6876L19.6259 17.2243L14.137 12.7621L8.64861 8.29988L8.577 11.2572L8.50586 14.214L9.37401 14.9796C9.85157 15.4006 12.3416 17.4545 14.908 19.5436L19.5733 23.3424L22.6409 20.8689C24.3279 19.5089 25.7885 18.3954 25.8862 18.3954C25.9838 18.395 26.0638 21.4048 26.0638 25.0836V31.7727H28.433H30.8026V19.9477C30.8026 13.4438 30.7761 8.12876 30.7436 8.13673C30.711 8.1447 28.1963 10.1925 25.1552 12.6876ZM145.618 10.6097L144.271 13.1409L146.773 18.0049C149.663 23.6256 149.522 23.1727 148.38 23.1727C147.486 23.1727 147.484 23.175 146.366 25.4451C145.75 26.6949 145.246 27.7699 145.246 27.8342C145.246 27.8979 146.737 27.9504 148.561 27.9504H151.875L152.828 29.8614L153.781 31.7727H156.385C157.817 31.7727 158.989 31.701 158.989 31.6138C158.989 31.4544 148.957 11.7466 147.658 9.35472L146.965 8.07812L145.618 10.6097ZM52.765 8.71994C49.3538 9.66555 46.5438 12.0125 44.9563 15.2422L43.9528 17.2829L43.9556 20.2876C43.9616 26.3705 47.7068 31.0639 53.417 32.144L54.26 32.3034V29.8806C54.26 27.7817 54.2047 27.4404 53.8452 27.3283C47.2701 25.2763 46.7172 15.967 53.0361 13.7044L54.26 13.2661V10.8137C54.26 9.46489 54.18 8.37114 54.0824 8.38286C53.9847 8.39458 53.3918 8.54648 52.765 8.71994ZM57.1035 10.8592C57.1035 12.9632 57.163 13.3781 57.4666 13.3781C58.0525 13.3781 60.0162 14.4724 60.6393 15.146C61.3968 15.9646 61.3485 15.9787 63.3456 14.3781L65.0792 12.9895L64.3491 12.1606C62.7356 10.3285 60.2799 8.9145 57.9916 8.50053L57.1035 8.33973V10.8592ZM76.7697 8.70353C64.6509 12.1039 65.0568 29.9167 77.3026 32.1126L78.1912 32.272V29.8857V27.4994L76.7576 26.8506C71 24.2458 71.1944 15.7715 77.0599 13.6711L78.1912 13.2661V10.8137C78.1912 9.46489 78.1112 8.37114 78.0136 8.38286C77.9159 8.39458 77.3561 8.53897 76.7697 8.70353ZM81.0854 10.7781L81.1528 13.2197L82.1581 13.5572C82.711 13.7429 83.6647 14.3523 84.2776 14.9116L85.3913 15.9285L87.2192 14.4799L89.0466 13.0317L88.5603 12.3425C87.4364 10.7513 84.2958 8.9356 81.9145 8.50053L81.0175 8.33644L81.0854 10.7781ZM100.796 8.71619C96.6108 9.63461 92.496 13.8718 91.7953 17.9852L91.6409 18.89L94.0784 18.8216L96.516 18.7531L96.8452 17.7555C98.7712 11.9201 107.595 11.8001 109.97 17.5773L110.503 18.8727H112.849H115.196L115.034 17.8572C114.051 11.6735 107.242 7.3027 100.796 8.71619ZM35.3047 20.3059V31.7727H37.6739H40.0436V20.3059V8.83949H37.6739H35.3047V20.3059ZM118.709 20.3059V31.7727H121.078H123.447V20.3059V8.83949H121.078H118.709V20.3059ZM126.29 11.2019V13.5647L128.053 13.6547C132.413 13.8765 132.217 17.9172 127.846 17.9172H126.29V20.3387V22.7601L128.485 22.6443C132.961 22.4081 135.768 19.838 135.768 15.9768C135.768 11.5399 132.576 8.85074 127.298 8.84089L126.29 8.83949V11.2019ZM155.909 8.96794C155.909 9.03874 157.228 10.9745 158.841 13.2694L161.774 17.4428L163.239 15.4105C164.15 14.1456 164.635 13.2651 164.522 13.0795C164.423 12.9154 163.713 11.8938 162.945 10.8099L161.549 8.83949H158.729C157.178 8.83949 155.909 8.89715 155.909 8.96794ZM167.571 14.4906L163.49 20.1423V25.9575V31.7727H165.86H168.229V26.755V21.7367L172.682 15.5867C175.132 12.2042 177.217 9.30221 177.317 9.13766C177.458 8.90512 176.852 8.83949 174.575 8.83949H171.652L167.571 14.4906ZM141.521 18.687C140.843 20.0372 139.068 23.5337 137.577 26.4573L134.865 31.7727H137.525H140.184L142.774 26.6556L145.364 21.5384L144.059 18.8849L142.754 16.2318L141.521 18.687ZM8.53004 24.9509V31.7727H10.8992H13.2689L13.2684 26.8154L13.2679 21.8586L11.3293 20.3059C10.2631 19.4517 9.19685 18.6125 8.96016 18.4409C8.54724 18.1413 8.53004 18.4039 8.53004 24.9509ZM91.6967 22.0724C91.6967 25.2064 95.0521 29.5032 98.9274 31.3316C105.33 34.3522 114.014 29.7315 115.046 22.7545L115.196 21.7391H112.849H110.503L109.985 22.9992C107.543 28.9368 99.3139 28.9523 96.8768 23.0241L96.3485 21.7391H94.0226C92.1915 21.7391 91.6967 21.8103 91.6967 22.0724ZM60.8258 25.4469C60.5928 25.77 59.6619 26.3846 58.7575 26.8131L57.1128 27.5923L57.1081 29.9518L57.1035 32.3114L58.1102 32.1539C59.7437 31.8984 62.3398 30.5186 63.8446 29.1066L65.2326 27.8037L63.3596 26.3288C61.1997 24.6279 61.3736 24.6884 60.8258 25.4469ZM84.1776 25.9425C83.495 26.5102 82.5087 27.0906 81.9856 27.2327L81.0347 27.491V29.8707C81.0347 32.6185 80.9603 32.558 83.3825 31.7976C85.4289 31.1553 89.6353 28.0831 89.076 27.6391C88.8249 27.4399 85.8684 25.2247 85.6549 25.0761C85.5247 24.9852 84.8598 25.3752 84.1776 25.9425Z"
    fill="#7842EB"
  />
</svg>